<?xml version="1.0" encoding="utf-8" standalone="no"?>
<!DOCTYPE svg PUBLIC "-//W3C//DTD SVG 1.1//EN"
  "http://www.w3.org/Graphics/SVG/1.1/DTD/svg11.dtd">
<svg xmlns:xlink="http://www.w3.org/1999/xlink" width="504pt" height="216pt" viewBox="0 0 504 216" xmlns="http://www.w3.org/2000/svg" version="1.1">
 <metadata>
  <rdf:RDF xmlns:dc="http://purl.org/dc/elements/1.1/" xmlns:cc="http://creativecommons.org/ns#" xmlns:rdf="http://www.w3.org/1999/02/22-rdf-syntax-ns#">
   <cc:Work>
    <dc:type rdf:resource="http://purl.org/dc/dcmitype/StillImage"/>
    <dc:date>2024-06-01T00:09:06.611815</dc:date>
    <dc:format>image/svg+xml</dc:format>
    <dc:creator>
     <cc:Agent>
      <dc:title>Matplotlib v3.8.4, https://matplotlib.org/</dc:title>
     </cc:Agent>
    </dc:creator>
   </cc:Work>
  </rdf:RDF>
 </metadata>
 <defs>
  <style type="text/css">*{stroke-linejoin: round; stroke-linecap: butt}</style>
 </defs>
 <g id="figure_1">
  <g id="patch_1">
   <path d="M 0 216 
L 504 216 
L 504 0 
L 0 0 
z
" style="fill: #ffffff"/>
  </g>
  <g id="axes_1">
   <g id="patch_2">
    <path d="M 63 192.24 
L 240.545455 192.24 
L 240.545455 40.881156 
L 63 40.881156 
z
" style="fill: #ffffff"/>
   </g>
   <g id="matplotlib.axis_1"/>
   <g id="matplotlib.axis_2">
    <g id="ytick_1">
     <g id="text_1">
      <!-- 0 -->
      <g style="fill: #262626" transform="translate(51.326875 189.891925) scale(0.12 -0.12)">
       <defs>
        <path id="ArialMT-30" d="M 266 2259 
Q 266 3072 433 3567 
Q 600 4063 929 4331 
Q 1259 4600 1759 4600 
Q 2128 4600 2406 4451 
Q 2684 4303 2865 4023 
Q 3047 3744 3150 3342 
Q 3253 2941 3253 2259 
Q 3253 1453 3087 958 
Q 2922 463 2592 192 
Q 2263 -78 1759 -78 
Q 1097 -78 719 397 
Q 266 969 266 2259 
z
M 844 2259 
Q 844 1131 1108 757 
Q 1372 384 1759 384 
Q 2147 384 2411 759 
Q 2675 1134 2675 2259 
Q 2675 3391 2411 3762 
Q 2147 4134 1753 4134 
Q 1366 4134 1134 3806 
Q 844 3388 844 2259 
z
" transform="scale(0.015625)"/>
       </defs>
       <use xlink:href="#ArialMT-30"/>
      </g>
     </g>
    </g>
    <g id="ytick_2">
     <g id="text_2">
      <!-- 25 -->
      <g style="fill: #262626" transform="translate(44.65375 160.257612) scale(0.12 -0.12)">
       <defs>
        <path id="ArialMT-32" d="M 3222 541 
L 3222 0 
L 194 0 
Q 188 203 259 391 
Q 375 700 629 1000 
Q 884 1300 1366 1694 
Q 2113 2306 2375 2664 
Q 2638 3022 2638 3341 
Q 2638 3675 2398 3904 
Q 2159 4134 1775 4134 
Q 1369 4134 1125 3890 
Q 881 3647 878 3216 
L 300 3275 
Q 359 3922 746 4261 
Q 1134 4600 1788 4600 
Q 2447 4600 2831 4234 
Q 3216 3869 3216 3328 
Q 3216 3053 3103 2787 
Q 2991 2522 2730 2228 
Q 2469 1934 1863 1422 
Q 1356 997 1212 845 
Q 1069 694 975 541 
L 3222 541 
z
" transform="scale(0.015625)"/>
        <path id="ArialMT-35" d="M 266 1200 
L 856 1250 
Q 922 819 1161 601 
Q 1400 384 1738 384 
Q 2144 384 2425 690 
Q 2706 997 2706 1503 
Q 2706 1984 2436 2262 
Q 2166 2541 1728 2541 
Q 1456 2541 1237 2417 
Q 1019 2294 894 2097 
L 366 2166 
L 809 4519 
L 3088 4519 
L 3088 3981 
L 1259 3981 
L 1013 2750 
Q 1425 3038 1878 3038 
Q 2478 3038 2890 2622 
Q 3303 2206 3303 1553 
Q 3303 931 2941 478 
Q 2500 -78 1738 -78 
Q 1113 -78 717 272 
Q 322 622 266 1200 
z
" transform="scale(0.015625)"/>
       </defs>
       <use xlink:href="#ArialMT-32"/>
       <use xlink:href="#ArialMT-35" x="55.615234"/>
      </g>
     </g>
    </g>
    <g id="ytick_3">
     <g id="text_3">
      <!-- 50 -->
      <g style="fill: #262626" transform="translate(44.65375 130.6233) scale(0.12 -0.12)">
       <use xlink:href="#ArialMT-35"/>
       <use xlink:href="#ArialMT-30" x="55.615234"/>
      </g>
     </g>
    </g>
    <g id="ytick_4">
     <g id="text_4">
      <!-- 75 -->
      <g style="fill: #262626" transform="translate(44.65375 100.988988) scale(0.12 -0.12)">
       <defs>
        <path id="ArialMT-37" d="M 303 3981 
L 303 4522 
L 3269 4522 
L 3269 4084 
Q 2831 3619 2401 2847 
Q 1972 2075 1738 1259 
Q 1569 684 1522 0 
L 944 0 
Q 953 541 1156 1306 
Q 1359 2072 1739 2783 
Q 2119 3494 2547 3981 
L 303 3981 
z
" transform="scale(0.015625)"/>
       </defs>
       <use xlink:href="#ArialMT-37"/>
       <use xlink:href="#ArialMT-35" x="55.615234"/>
      </g>
     </g>
    </g>
    <g id="ytick_5">
     <g id="text_5">
      <!-- 100 -->
      <g style="fill: #262626" transform="translate(37.980625 71.354676) scale(0.12 -0.12)">
       <defs>
        <path id="ArialMT-31" d="M 2384 0 
L 1822 0 
L 1822 3584 
Q 1619 3391 1289 3197 
Q 959 3003 697 2906 
L 697 3450 
Q 1169 3672 1522 3987 
Q 1875 4303 2022 4600 
L 2384 4600 
L 2384 0 
z
" transform="scale(0.015625)"/>
       </defs>
       <use xlink:href="#ArialMT-31"/>
       <use xlink:href="#ArialMT-30" x="55.615234"/>
       <use xlink:href="#ArialMT-30" x="111.230469"/>
      </g>
     </g>
    </g>
    <g id="text_6">
     <!-- Freezing bout length(s) -->
     <g style="fill: #262626" transform="translate(31.455 178.25464) rotate(-90) scale(0.12 -0.12)">
      <defs>
       <path id="ArialMT-46" d="M 525 0 
L 525 4581 
L 3616 4581 
L 3616 4041 
L 1131 4041 
L 1131 2622 
L 3281 2622 
L 3281 2081 
L 1131 2081 
L 1131 0 
L 525 0 
z
" transform="scale(0.015625)"/>
       <path id="ArialMT-72" d="M 416 0 
L 416 3319 
L 922 3319 
L 922 2816 
Q 1116 3169 1280 3281 
Q 1444 3394 1641 3394 
Q 1925 3394 2219 3213 
L 2025 2691 
Q 1819 2813 1613 2813 
Q 1428 2813 1281 2702 
Q 1134 2591 1072 2394 
Q 978 2094 978 1738 
L 978 0 
L 416 0 
z
" transform="scale(0.015625)"/>
       <path id="ArialMT-65" d="M 2694 1069 
L 3275 997 
Q 3138 488 2766 206 
Q 2394 -75 1816 -75 
Q 1088 -75 661 373 
Q 234 822 234 1631 
Q 234 2469 665 2931 
Q 1097 3394 1784 3394 
Q 2450 3394 2872 2941 
Q 3294 2488 3294 1666 
Q 3294 1616 3291 1516 
L 816 1516 
Q 847 969 1125 678 
Q 1403 388 1819 388 
Q 2128 388 2347 550 
Q 2566 713 2694 1069 
z
M 847 1978 
L 2700 1978 
Q 2663 2397 2488 2606 
Q 2219 2931 1791 2931 
Q 1403 2931 1139 2672 
Q 875 2413 847 1978 
z
" transform="scale(0.015625)"/>
       <path id="ArialMT-7a" d="M 125 0 
L 125 456 
L 2238 2881 
Q 1878 2863 1603 2863 
L 250 2863 
L 250 3319 
L 2963 3319 
L 2963 2947 
L 1166 841 
L 819 456 
Q 1197 484 1528 484 
L 3063 484 
L 3063 0 
L 125 0 
z
" transform="scale(0.015625)"/>
       <path id="ArialMT-69" d="M 425 3934 
L 425 4581 
L 988 4581 
L 988 3934 
L 425 3934 
z
M 425 0 
L 425 3319 
L 988 3319 
L 988 0 
L 425 0 
z
" transform="scale(0.015625)"/>
       <path id="ArialMT-6e" d="M 422 0 
L 422 3319 
L 928 3319 
L 928 2847 
Q 1294 3394 1984 3394 
Q 2284 3394 2536 3286 
Q 2788 3178 2913 3003 
Q 3038 2828 3088 2588 
Q 3119 2431 3119 2041 
L 3119 0 
L 2556 0 
L 2556 2019 
Q 2556 2363 2490 2533 
Q 2425 2703 2258 2804 
Q 2091 2906 1866 2906 
Q 1506 2906 1245 2678 
Q 984 2450 984 1813 
L 984 0 
L 422 0 
z
" transform="scale(0.015625)"/>
       <path id="ArialMT-67" d="M 319 -275 
L 866 -356 
Q 900 -609 1056 -725 
Q 1266 -881 1628 -881 
Q 2019 -881 2231 -725 
Q 2444 -569 2519 -288 
Q 2563 -116 2559 434 
Q 2191 0 1641 0 
Q 956 0 581 494 
Q 206 988 206 1678 
Q 206 2153 378 2554 
Q 550 2956 876 3175 
Q 1203 3394 1644 3394 
Q 2231 3394 2613 2919 
L 2613 3319 
L 3131 3319 
L 3131 450 
Q 3131 -325 2973 -648 
Q 2816 -972 2473 -1159 
Q 2131 -1347 1631 -1347 
Q 1038 -1347 672 -1080 
Q 306 -813 319 -275 
z
M 784 1719 
Q 784 1066 1043 766 
Q 1303 466 1694 466 
Q 2081 466 2343 764 
Q 2606 1063 2606 1700 
Q 2606 2309 2336 2618 
Q 2066 2928 1684 2928 
Q 1309 2928 1046 2623 
Q 784 2319 784 1719 
z
" transform="scale(0.015625)"/>
       <path id="ArialMT-20" transform="scale(0.015625)"/>
       <path id="ArialMT-62" d="M 941 0 
L 419 0 
L 419 4581 
L 981 4581 
L 981 2947 
Q 1338 3394 1891 3394 
Q 2197 3394 2470 3270 
Q 2744 3147 2920 2923 
Q 3097 2700 3197 2384 
Q 3297 2069 3297 1709 
Q 3297 856 2875 390 
Q 2453 -75 1863 -75 
Q 1275 -75 941 416 
L 941 0 
z
M 934 1684 
Q 934 1088 1097 822 
Q 1363 388 1816 388 
Q 2184 388 2453 708 
Q 2722 1028 2722 1663 
Q 2722 2313 2464 2622 
Q 2206 2931 1841 2931 
Q 1472 2931 1203 2611 
Q 934 2291 934 1684 
z
" transform="scale(0.015625)"/>
       <path id="ArialMT-6f" d="M 213 1659 
Q 213 2581 725 3025 
Q 1153 3394 1769 3394 
Q 2453 3394 2887 2945 
Q 3322 2497 3322 1706 
Q 3322 1066 3130 698 
Q 2938 331 2570 128 
Q 2203 -75 1769 -75 
Q 1072 -75 642 372 
Q 213 819 213 1659 
z
M 791 1659 
Q 791 1022 1069 705 
Q 1347 388 1769 388 
Q 2188 388 2466 706 
Q 2744 1025 2744 1678 
Q 2744 2294 2464 2611 
Q 2184 2928 1769 2928 
Q 1347 2928 1069 2612 
Q 791 2297 791 1659 
z
" transform="scale(0.015625)"/>
       <path id="ArialMT-75" d="M 2597 0 
L 2597 488 
Q 2209 -75 1544 -75 
Q 1250 -75 995 37 
Q 741 150 617 320 
Q 494 491 444 738 
Q 409 903 409 1263 
L 409 3319 
L 972 3319 
L 972 1478 
Q 972 1038 1006 884 
Q 1059 663 1231 536 
Q 1403 409 1656 409 
Q 1909 409 2131 539 
Q 2353 669 2445 892 
Q 2538 1116 2538 1541 
L 2538 3319 
L 3100 3319 
L 3100 0 
L 2597 0 
z
" transform="scale(0.015625)"/>
       <path id="ArialMT-74" d="M 1650 503 
L 1731 6 
Q 1494 -44 1306 -44 
Q 1000 -44 831 53 
Q 663 150 594 308 
Q 525 466 525 972 
L 525 2881 
L 113 2881 
L 113 3319 
L 525 3319 
L 525 4141 
L 1084 4478 
L 1084 3319 
L 1650 3319 
L 1650 2881 
L 1084 2881 
L 1084 941 
Q 1084 700 1114 631 
Q 1144 563 1211 522 
Q 1278 481 1403 481 
Q 1497 481 1650 503 
z
" transform="scale(0.015625)"/>
       <path id="ArialMT-6c" d="M 409 0 
L 409 4581 
L 972 4581 
L 972 0 
L 409 0 
z
" transform="scale(0.015625)"/>
       <path id="ArialMT-68" d="M 422 0 
L 422 4581 
L 984 4581 
L 984 2938 
Q 1378 3394 1978 3394 
Q 2347 3394 2619 3248 
Q 2891 3103 3008 2847 
Q 3125 2591 3125 2103 
L 3125 0 
L 2563 0 
L 2563 2103 
Q 2563 2525 2380 2717 
Q 2197 2909 1863 2909 
Q 1613 2909 1392 2779 
Q 1172 2650 1078 2428 
Q 984 2206 984 1816 
L 984 0 
L 422 0 
z
" transform="scale(0.015625)"/>
       <path id="ArialMT-28" d="M 1497 -1347 
Q 1031 -759 709 28 
Q 388 816 388 1659 
Q 388 2403 628 3084 
Q 909 3875 1497 4659 
L 1900 4659 
Q 1522 4009 1400 3731 
Q 1209 3300 1100 2831 
Q 966 2247 966 1656 
Q 966 153 1900 -1347 
L 1497 -1347 
z
" transform="scale(0.015625)"/>
       <path id="ArialMT-73" d="M 197 991 
L 753 1078 
Q 800 744 1014 566 
Q 1228 388 1613 388 
Q 2000 388 2187 545 
Q 2375 703 2375 916 
Q 2375 1106 2209 1216 
Q 2094 1291 1634 1406 
Q 1016 1563 777 1677 
Q 538 1791 414 1992 
Q 291 2194 291 2438 
Q 291 2659 392 2848 
Q 494 3038 669 3163 
Q 800 3259 1026 3326 
Q 1253 3394 1513 3394 
Q 1903 3394 2198 3281 
Q 2494 3169 2634 2976 
Q 2775 2784 2828 2463 
L 2278 2388 
Q 2241 2644 2061 2787 
Q 1881 2931 1553 2931 
Q 1166 2931 1000 2803 
Q 834 2675 834 2503 
Q 834 2394 903 2306 
Q 972 2216 1119 2156 
Q 1203 2125 1616 2013 
Q 2213 1853 2448 1751 
Q 2684 1650 2818 1456 
Q 2953 1263 2953 975 
Q 2953 694 2789 445 
Q 2625 197 2315 61 
Q 2006 -75 1616 -75 
Q 969 -75 630 194 
Q 291 463 197 991 
z
" transform="scale(0.015625)"/>
       <path id="ArialMT-29" d="M 791 -1347 
L 388 -1347 
Q 1322 153 1322 1656 
Q 1322 2244 1188 2822 
Q 1081 3291 891 3722 
Q 769 4003 388 4659 
L 791 4659 
Q 1378 3875 1659 3084 
Q 1900 2403 1900 1659 
Q 1900 816 1576 28 
Q 1253 -759 791 -1347 
z
" transform="scale(0.015625)"/>
      </defs>
      <use xlink:href="#ArialMT-46"/>
      <use xlink:href="#ArialMT-72" x="61.083984"/>
      <use xlink:href="#ArialMT-65" x="94.384766"/>
      <use xlink:href="#ArialMT-65" x="150"/>
      <use xlink:href="#ArialMT-7a" x="205.615234"/>
      <use xlink:href="#ArialMT-69" x="255.615234"/>
      <use xlink:href="#ArialMT-6e" x="277.832031"/>
      <use xlink:href="#ArialMT-67" x="333.447266"/>
      <use xlink:href="#ArialMT-20" x="389.0625"/>
      <use xlink:href="#ArialMT-62" x="416.845703"/>
      <use xlink:href="#ArialMT-6f" x="472.460938"/>
      <use xlink:href="#ArialMT-75" x="528.076172"/>
      <use xlink:href="#ArialMT-74" x="583.691406"/>
      <use xlink:href="#ArialMT-20" x="611.474609"/>
      <use xlink:href="#ArialMT-6c" x="639.257812"/>
      <use xlink:href="#ArialMT-65" x="661.474609"/>
      <use xlink:href="#ArialMT-6e" x="717.089844"/>
      <use xlink:href="#ArialMT-67" x="772.705078"/>
      <use xlink:href="#ArialMT-74" x="828.320312"/>
      <use xlink:href="#ArialMT-68" x="856.103516"/>
      <use xlink:href="#ArialMT-28" x="911.71875"/>
      <use xlink:href="#ArialMT-73" x="945.019531"/>
      <use xlink:href="#ArialMT-29" x="995.019531"/>
     </g>
    </g>
   </g>
   <g id="PolyCollection_1">
    <defs>
     <path id="mdf631082e7" d="M 104.215909 -30.639947 
L 85.193182 -30.639947 
L 88.033447 -37.881997 
L 93.112856 -45.124047 
L 94.060511 -52.366097 
L 94.450537 -59.608147 
L 94.573948 -66.850197 
L 94.584942 -74.092247 
L 94.638808 -81.334297 
L 94.704133 -88.576347 
L 94.704545 -95.818397 
L 94.704545 -103.060447 
L 94.704545 -110.302497 
L 94.704545 -117.544547 
L 94.704545 -124.786597 
L 94.704545 -132.028647 
L 94.704545 -139.270697 
L 94.704545 -146.512747 
L 94.704545 -153.754797 
L 94.703344 -160.996847 
L 94.663793 -168.238897 
L 94.745298 -168.238897 
L 94.745298 -168.238897 
L 94.705747 -160.996847 
L 94.704545 -153.754797 
L 94.704545 -146.512747 
L 94.704545 -139.270697 
L 94.704545 -132.028647 
L 94.704545 -124.786597 
L 94.704545 -117.544547 
L 94.704545 -110.302497 
L 94.704545 -103.060447 
L 94.704545 -95.818397 
L 94.704957 -88.576347 
L 94.770283 -81.334297 
L 94.824149 -74.092247 
L 94.835143 -66.850197 
L 94.958554 -59.608147 
L 95.34858 -52.366097 
L 96.296235 -45.124047 
L 101.375644 -37.881997 
L 104.215909 -30.639947 
z
" style="stroke: #a0a0a4; stroke-width: 2"/>
    </defs>
    <g clip-path="url(#p7ddd16ab1e)">
     <use xlink:href="#mdf631082e7" x="0" y="216" style="fill: #a0a0a4; stroke: #a0a0a4; stroke-width: 2"/>
    </g>
   </g>
   <g id="PolyCollection_2">
    <defs>
     <path id="m92e8e78ec8" d="M 140.917792 -30.702604 
L 124.582208 -30.702604 
L 123.238636 -34.117634 
L 128.216197 -37.532664 
L 130.690628 -40.947694 
L 131.690013 -44.362724 
L 131.810919 -47.777754 
L 131.900032 -51.192783 
L 132.302915 -54.607813 
L 132.404123 -58.022843 
L 132.635262 -61.437873 
L 132.704885 -64.852903 
L 132.745595 -68.267933 
L 132.749965 -71.682963 
L 132.75 -75.097993 
L 132.75 -78.513023 
L 132.75 -81.928053 
L 132.75 -85.343083 
L 132.749701 -88.758113 
L 132.735812 -92.173143 
L 132.698651 -95.588173 
L 132.801349 -95.588173 
L 132.801349 -95.588173 
L 132.764188 -92.173143 
L 132.750299 -88.758113 
L 132.75 -85.343083 
L 132.75 -81.928053 
L 132.75 -78.513023 
L 132.75 -75.097993 
L 132.750035 -71.682963 
L 132.754405 -68.267933 
L 132.795115 -64.852903 
L 132.864738 -61.437873 
L 133.095877 -58.022843 
L 133.197085 -54.607813 
L 133.599968 -51.192783 
L 133.689081 -47.777754 
L 133.809987 -44.362724 
L 134.809372 -40.947694 
L 137.283803 -37.532664 
L 142.261364 -34.117634 
L 140.917792 -30.702604 
z
" style="stroke: #ffa040; stroke-width: 2"/>
    </defs>
    <g clip-path="url(#p7ddd16ab1e)">
     <use xlink:href="#m92e8e78ec8" x="0" y="216" style="fill: #ffa040; stroke: #ffa040; stroke-width: 2"/>
    </g>
   </g>
   <g id="PolyCollection_3">
    <defs>
     <path id="m9d4192b5b9" d="M 178.350529 -30.734939 
L 163.24038 -30.734939 
L 161.284091 -31.81148 
L 164.05196 -32.888021 
L 166.876516 -33.964561 
L 168.672981 -35.041102 
L 169.81 -36.117643 
L 170.338261 -37.194184 
L 170.440957 -38.270725 
L 170.421479 -39.347266 
L 170.443914 -40.423806 
L 170.427592 -41.500347 
L 170.451196 -42.576888 
L 170.571754 -43.653429 
L 170.726066 -44.72997 
L 170.787756 -45.806511 
L 170.793989 -46.883052 
L 170.781152 -47.959592 
L 170.734484 -49.036133 
L 170.674456 -50.112674 
L 170.667658 -51.189215 
L 170.923251 -51.189215 
L 170.923251 -51.189215 
L 170.916454 -50.112674 
L 170.856425 -49.036133 
L 170.809757 -47.959592 
L 170.79692 -46.883052 
L 170.803153 -45.806511 
L 170.864843 -44.72997 
L 171.019155 -43.653429 
L 171.139713 -42.576888 
L 171.163317 -41.500347 
L 171.146995 -40.423806 
L 171.16943 -39.347266 
L 171.149952 -38.270725 
L 171.252648 -37.194184 
L 171.780909 -36.117643 
L 172.917928 -35.041102 
L 174.714393 -33.964561 
L 177.538949 -32.888021 
L 180.306818 -31.81148 
L 178.350529 -30.734939 
z
" style="stroke: #a0a0a4; stroke-width: 2"/>
    </defs>
    <g clip-path="url(#p7ddd16ab1e)">
     <use xlink:href="#m9d4192b5b9" x="0" y="216" style="fill: #ffffff; stroke: #a0a0a4; stroke-width: 2"/>
    </g>
   </g>
   <g id="PolyCollection_4">
    <defs>
     <path id="m7e36194b2e" d="M 217.564018 -30.68723 
L 200.1178 -30.68723 
L 199.329545 -34.340971 
L 204.946882 -37.994713 
L 207.492195 -41.648454 
L 208.325754 -45.302195 
L 208.713449 -48.955936 
L 208.709208 -52.609678 
L 208.672615 -56.263419 
L 208.675226 -59.91716 
L 208.725774 -63.570901 
L 208.704487 -67.224643 
L 208.749164 -70.878384 
L 208.834451 -74.532125 
L 208.840883 -78.185866 
L 208.840909 -81.839608 
L 208.840909 -85.493349 
L 208.840909 -89.14709 
L 208.840785 -92.800831 
L 208.829433 -96.454573 
L 208.789008 -100.108314 
L 208.89281 -100.108314 
L 208.89281 -100.108314 
L 208.852385 -96.454573 
L 208.841033 -92.800831 
L 208.840909 -89.14709 
L 208.840909 -85.493349 
L 208.840909 -81.839608 
L 208.840935 -78.185866 
L 208.847368 -74.532125 
L 208.932654 -70.878384 
L 208.977331 -67.224643 
L 208.956044 -63.570901 
L 209.006592 -59.91716 
L 209.009203 -56.263419 
L 208.97261 -52.609678 
L 208.968369 -48.955936 
L 209.356064 -45.302195 
L 210.189623 -41.648454 
L 212.734937 -37.994713 
L 218.352273 -34.340971 
L 217.564018 -30.68723 
z
" style="stroke: #ffa040; stroke-width: 2"/>
    </defs>
    <g clip-path="url(#p7ddd16ab1e)">
     <use xlink:href="#m7e36194b2e" x="0" y="216" style="fill: #ffffff; stroke: #ffa040; stroke-width: 2"/>
    </g>
   </g>
   <g id="line2d_1">
    <path d="M 91.851136 184.032671 
L 97.557955 184.032671 
L 97.557955 178.272156 
L 91.851136 178.272156 
L 91.851136 184.032671 
" clip-path="url(#p7ddd16ab1e)" style="fill: none; stroke: #000000; stroke-linecap: round"/>
   </g>
   <g id="line2d_2">
    <path d="M 94.704545 184.032671 
L 94.704545 185.360053 
" clip-path="url(#p7ddd16ab1e)" style="fill: none; stroke: #000000; stroke-linecap: round"/>
   </g>
   <g id="line2d_3">
    <path d="M 94.704545 178.272156 
L 94.704545 170.129505 
" clip-path="url(#p7ddd16ab1e)" style="fill: none; stroke: #000000; stroke-linecap: round"/>
   </g>
   <g id="line2d_4">
    <defs>
     <path id="m50482fb149" d="M 0 0.5 
C 0.132602 0.5 0.25979 0.447317 0.353553 0.353553 
C 0.447317 0.25979 0.5 0.132602 0.5 0 
C 0.5 -0.132602 0.447317 -0.25979 0.353553 -0.353553 
C 0.25979 -0.447317 0.132602 -0.5 0 -0.5 
C -0.132602 -0.5 -0.25979 -0.447317 -0.353553 -0.353553 
C -0.447317 -0.25979 -0.5 -0.132602 -0.5 0 
C -0.5 0.132602 -0.447317 0.25979 -0.353553 0.353553 
C -0.25979 0.447317 -0.132602 0.5 0 0.5 
z
"/>
    </defs>
    <g clip-path="url(#p7ddd16ab1e)">
     <use xlink:href="#m50482fb149" x="94.704545" y="166.917264"/>
     <use xlink:href="#m50482fb149" x="94.704545" y="147.568123"/>
     <use xlink:href="#m50482fb149" x="94.704545" y="161.651224"/>
     <use xlink:href="#m50482fb149" x="94.704545" y="160.276107"/>
     <use xlink:href="#m50482fb149" x="94.704545" y="168.431976"/>
     <use xlink:href="#m50482fb149" x="94.704545" y="160.655449"/>
     <use xlink:href="#m50482fb149" x="94.704545" y="166.584693"/>
     <use xlink:href="#m50482fb149" x="94.704545" y="168.481206"/>
     <use xlink:href="#m50482fb149" x="94.704545" y="169.476875"/>
     <use xlink:href="#m50482fb149" x="94.704545" y="157.908145"/>
     <use xlink:href="#m50482fb149" x="94.704545" y="165.162308"/>
     <use xlink:href="#m50482fb149" x="94.704545" y="168.101903"/>
     <use xlink:href="#m50482fb149" x="94.704545" y="166.963995"/>
     <use xlink:href="#m50482fb149" x="94.704545" y="163.586509"/>
     <use xlink:href="#m50482fb149" x="94.704545" y="168.757133"/>
     <use xlink:href="#m50482fb149" x="94.704545" y="165.958355"/>
     <use xlink:href="#m50482fb149" x="94.704545" y="166.764782"/>
     <use xlink:href="#m50482fb149" x="94.704545" y="166.195539"/>
     <use xlink:href="#m50482fb149" x="94.704545" y="168.709696"/>
     <use xlink:href="#m50482fb149" x="94.704545" y="154.146563"/>
     <use xlink:href="#m50482fb149" x="94.704545" y="166.764782"/>
     <use xlink:href="#m50482fb149" x="94.704545" y="168.037155"/>
     <use xlink:href="#m50482fb149" x="94.704545" y="167.977223"/>
     <use xlink:href="#m50482fb149" x="94.704545" y="157.069596"/>
     <use xlink:href="#m50482fb149" x="94.704545" y="165.156682"/>
     <use xlink:href="#m50482fb149" x="94.704545" y="168.025532"/>
     <use xlink:href="#m50482fb149" x="94.704545" y="168.503674"/>
     <use xlink:href="#m50482fb149" x="94.704545" y="165.395753"/>
     <use xlink:href="#m50482fb149" x="94.704545" y="168.503674"/>
     <use xlink:href="#m50482fb149" x="94.704545" y="147.554978"/>
     <use xlink:href="#m50482fb149" x="94.704545" y="143.195347"/>
     <use xlink:href="#m50482fb149" x="94.704545" y="139.492647"/>
     <use xlink:href="#m50482fb149" x="94.704545" y="154.124285"/>
     <use xlink:href="#m50482fb149" x="94.704545" y="166.904573"/>
     <use xlink:href="#m50482fb149" x="94.704545" y="167.262899"/>
     <use xlink:href="#m50482fb149" x="94.704545" y="164.694897"/>
     <use xlink:href="#m50482fb149" x="94.704545" y="144.270324"/>
     <use xlink:href="#m50482fb149" x="94.704545" y="160.612196"/>
     <use xlink:href="#m50482fb149" x="94.704545" y="156.189007"/>
     <use xlink:href="#m50482fb149" x="94.704545" y="47.761103"/>
     <use xlink:href="#m50482fb149" x="94.704545" y="135.746701"/>
     <use xlink:href="#m50482fb149" x="94.704545" y="151.048544"/>
     <use xlink:href="#m50482fb149" x="94.704545" y="165.752659"/>
     <use xlink:href="#m50482fb149" x="94.704545" y="158.938557"/>
     <use xlink:href="#m50482fb149" x="94.704545" y="167.24698"/>
     <use xlink:href="#m50482fb149" x="94.704545" y="138.018069"/>
    </g>
   </g>
   <g id="line2d_5">
    <path d="M 129.896591 184.222133 
L 135.603409 184.222133 
L 135.603409 178.640073 
L 129.896591 178.640073 
L 129.896591 184.222133 
" clip-path="url(#p7ddd16ab1e)" style="fill: none; stroke: #000000; stroke-linecap: round"/>
   </g>
   <g id="line2d_6">
    <path d="M 132.75 184.222133 
L 132.75 185.297396 
" clip-path="url(#p7ddd16ab1e)" style="fill: none; stroke: #000000; stroke-linecap: round"/>
   </g>
   <g id="line2d_7">
    <path d="M 132.75 178.640073 
L 132.75 170.783276 
" clip-path="url(#p7ddd16ab1e)" style="fill: none; stroke: #000000; stroke-linecap: round"/>
   </g>
   <g id="line2d_8">
    <g clip-path="url(#p7ddd16ab1e)">
     <use xlink:href="#m50482fb149" x="132.75" y="164.831157"/>
     <use xlink:href="#m50482fb149" x="132.75" y="163.595566"/>
     <use xlink:href="#m50482fb149" x="132.75" y="152.452478"/>
     <use xlink:href="#m50482fb149" x="132.75" y="167.199288"/>
     <use xlink:href="#m50482fb149" x="132.75" y="167.426323"/>
     <use xlink:href="#m50482fb149" x="132.75" y="165.752686"/>
     <use xlink:href="#m50482fb149" x="132.75" y="159.416776"/>
     <use xlink:href="#m50482fb149" x="132.75" y="166.828596"/>
     <use xlink:href="#m50482fb149" x="132.75" y="166.350414"/>
     <use xlink:href="#m50482fb149" x="132.75" y="167.080662"/>
     <use xlink:href="#m50482fb149" x="132.75" y="164.034386"/>
     <use xlink:href="#m50482fb149" x="132.75" y="170.186668"/>
     <use xlink:href="#m50482fb149" x="132.75" y="162.302191"/>
     <use xlink:href="#m50482fb149" x="132.75" y="168.932319"/>
     <use xlink:href="#m50482fb149" x="132.75" y="159.016992"/>
     <use xlink:href="#m50482fb149" x="132.75" y="166.124968"/>
     <use xlink:href="#m50482fb149" x="132.75" y="164.571964"/>
     <use xlink:href="#m50482fb149" x="132.75" y="166.005506"/>
     <use xlink:href="#m50482fb149" x="132.75" y="162.182729"/>
     <use xlink:href="#m50482fb149" x="132.75" y="164.571964"/>
     <use xlink:href="#m50482fb149" x="132.75" y="167.844474"/>
     <use xlink:href="#m50482fb149" x="132.75" y="161.666993"/>
     <use xlink:href="#m50482fb149" x="132.75" y="158.248387"/>
     <use xlink:href="#m50482fb149" x="132.75" y="169.283888"/>
     <use xlink:href="#m50482fb149" x="132.75" y="167.306943"/>
     <use xlink:href="#m50482fb149" x="132.75" y="156.812511"/>
     <use xlink:href="#m50482fb149" x="132.75" y="157.472161"/>
     <use xlink:href="#m50482fb149" x="132.75" y="165.327993"/>
     <use xlink:href="#m50482fb149" x="132.75" y="159.990825"/>
     <use xlink:href="#m50482fb149" x="132.75" y="158.371684"/>
     <use xlink:href="#m50482fb149" x="132.75" y="120.411827"/>
     <use xlink:href="#m50482fb149" x="132.75" y="167.306943"/>
     <use xlink:href="#m50482fb149" x="132.75" y="165.927675"/>
     <use xlink:href="#m50482fb149" x="132.75" y="168.146497"/>
     <use xlink:href="#m50482fb149" x="132.75" y="166.047611"/>
    </g>
   </g>
   <g id="line2d_9">
    <path d="M 167.942045 184.790525 
L 173.648864 184.790525 
L 173.648864 182.670409 
L 167.942045 182.670409 
L 167.942045 184.790525 
" clip-path="url(#p7ddd16ab1e)" style="fill: none; stroke: #000000; stroke-linecap: round"/>
   </g>
   <g id="line2d_10">
    <path d="M 170.795455 184.790525 
L 170.795455 185.265061 
" clip-path="url(#p7ddd16ab1e)" style="fill: none; stroke: #000000; stroke-linecap: round"/>
   </g>
   <g id="line2d_11">
    <path d="M 170.795455 182.670409 
L 170.795455 179.68385 
" clip-path="url(#p7ddd16ab1e)" style="fill: none; stroke: #000000; stroke-linecap: round"/>
   </g>
   <g id="line2d_12">
    <g clip-path="url(#p7ddd16ab1e)">
     <use xlink:href="#m50482fb149" x="170.795455" y="172.637937"/>
     <use xlink:href="#m50482fb149" x="170.795455" y="177.773881"/>
     <use xlink:href="#m50482fb149" x="170.795455" y="176.15971"/>
     <use xlink:href="#m50482fb149" x="170.795455" y="179.206"/>
     <use xlink:href="#m50482fb149" x="170.795455" y="176.398635"/>
     <use xlink:href="#m50482fb149" x="170.795455" y="166.363796"/>
     <use xlink:href="#m50482fb149" x="170.795455" y="174.606699"/>
     <use xlink:href="#m50482fb149" x="170.795455" y="179.146269"/>
     <use xlink:href="#m50482fb149" x="170.795455" y="175.14428"/>
     <use xlink:href="#m50482fb149" x="170.795455" y="174.487237"/>
     <use xlink:href="#m50482fb149" x="170.795455" y="176.15971"/>
     <use xlink:href="#m50482fb149" x="170.795455" y="165.04971"/>
     <use xlink:href="#m50482fb149" x="170.795455" y="174.248312"/>
     <use xlink:href="#m50482fb149" x="170.795455" y="164.810785"/>
     <use xlink:href="#m50482fb149" x="170.795455" y="174.069119"/>
     <use xlink:href="#m50482fb149" x="170.795455" y="172.755033"/>
     <use xlink:href="#m50482fb149" x="170.795455" y="173.412076"/>
     <use xlink:href="#m50482fb149" x="170.795455" y="172.63557"/>
     <use xlink:href="#m50482fb149" x="170.795455" y="176.995947"/>
     <use xlink:href="#m50482fb149" x="170.795455" y="177.473796"/>
     <use xlink:href="#m50482fb149" x="170.795455" y="178.770034"/>
     <use xlink:href="#m50482fb149" x="170.795455" y="177.110645"/>
    </g>
   </g>
   <g id="line2d_13">
    <path d="M 205.9875 184.317135 
L 211.694318 184.317135 
L 211.694318 180.141837 
L 205.9875 180.141837 
L 205.9875 184.317135 
" clip-path="url(#p7ddd16ab1e)" style="fill: none; stroke: #000000; stroke-linecap: round"/>
   </g>
   <g id="line2d_14">
    <path d="M 208.840909 184.317135 
L 208.840909 185.31277 
" clip-path="url(#p7ddd16ab1e)" style="fill: none; stroke: #000000; stroke-linecap: round"/>
   </g>
   <g id="line2d_15">
    <path d="M 208.840909 180.141837 
L 208.840909 174.01974 
" clip-path="url(#p7ddd16ab1e)" style="fill: none; stroke: #000000; stroke-linecap: round"/>
   </g>
   <g id="line2d_16">
    <g clip-path="url(#p7ddd16ab1e)">
     <use xlink:href="#m50482fb149" x="208.840909" y="169.473135"/>
     <use xlink:href="#m50482fb149" x="208.840909" y="172.601692"/>
     <use xlink:href="#m50482fb149" x="208.840909" y="172.962679"/>
     <use xlink:href="#m50482fb149" x="208.840909" y="146.148157"/>
     <use xlink:href="#m50482fb149" x="208.840909" y="157.775895"/>
     <use xlink:href="#m50482fb149" x="208.840909" y="115.891686"/>
     <use xlink:href="#m50482fb149" x="208.840909" y="146.817817"/>
     <use xlink:href="#m50482fb149" x="208.840909" y="161.185075"/>
     <use xlink:href="#m50482fb149" x="208.840909" y="154.671106"/>
     <use xlink:href="#m50482fb149" x="208.840909" y="151.171968"/>
     <use xlink:href="#m50482fb149" x="208.840909" y="149.279799"/>
     <use xlink:href="#m50482fb149" x="208.840909" y="162.036681"/>
     <use xlink:href="#m50482fb149" x="208.840909" y="155.322532"/>
     <use xlink:href="#m50482fb149" x="208.840909" y="171.985827"/>
     <use xlink:href="#m50482fb149" x="208.840909" y="169.605357"/>
     <use xlink:href="#m50482fb149" x="208.840909" y="162.952246"/>
     <use xlink:href="#m50482fb149" x="208.840909" y="158.252342"/>
     <use xlink:href="#m50482fb149" x="208.840909" y="173.389695"/>
     <use xlink:href="#m50482fb149" x="208.840909" y="171.619601"/>
     <use xlink:href="#m50482fb149" x="208.840909" y="168.384602"/>
     <use xlink:href="#m50482fb149" x="208.840909" y="171.487837"/>
     <use xlink:href="#m50482fb149" x="208.840909" y="173.048877"/>
     <use xlink:href="#m50482fb149" x="208.840909" y="172.348761"/>
     <use xlink:href="#m50482fb149" x="208.840909" y="172.706828"/>
    </g>
   </g>
   <g id="line2d_17">
    <path d="M 94.704545 36.840552 
L 94.704545 34.110414 
" style="fill: none; stroke: #a0a0a4; stroke-width: 1.5; stroke-linecap: round"/>
   </g>
   <g id="line2d_18">
    <path d="M 94.704545 34.110414 
L 170.795455 34.110414 
" style="fill: none; stroke: #a0a0a4; stroke-width: 1.5; stroke-linecap: round"/>
   </g>
   <g id="line2d_19">
    <path d="M 170.795455 34.110414 
L 170.795455 142.969682 
" style="fill: none; stroke: #a0a0a4; stroke-width: 1.5; stroke-linecap: round"/>
   </g>
   <g id="line2d_20">
    <path d="M 170.795455 28.650138 
L 170.795455 25.92 
" style="fill: none; stroke: #a0a0a4; stroke-width: 1.5; stroke-linecap: round"/>
   </g>
   <g id="line2d_21">
    <path d="M 170.795455 25.92 
L 208.840909 25.92 
" style="fill: none; stroke: #a0a0a4; stroke-width: 1.5; stroke-linecap: round"/>
   </g>
   <g id="line2d_22">
    <path d="M 208.840909 25.92 
L 208.840909 94.050583 
" style="fill: none; stroke: #a0a0a4; stroke-width: 1.5; stroke-linecap: round"/>
   </g>
   <g id="line2d_23">
    <path d="M 91.851136 181.969308 
L 97.557955 181.969308 
" clip-path="url(#p7ddd16ab1e)" style="fill: none; stroke: #000000"/>
   </g>
   <g id="line2d_24">
    <path d="M 129.896591 182.249964 
L 135.603409 182.249964 
" clip-path="url(#p7ddd16ab1e)" style="fill: none; stroke: #000000"/>
   </g>
   <g id="line2d_25">
    <path d="M 167.942045 184.076634 
L 173.648864 184.076634 
" clip-path="url(#p7ddd16ab1e)" style="fill: none; stroke: #000000"/>
   </g>
   <g id="line2d_26">
    <path d="M 205.9875 182.817687 
L 211.694318 182.817687 
" clip-path="url(#p7ddd16ab1e)" style="fill: none; stroke: #000000"/>
   </g>
   <g id="patch_3">
    <path d="M 63 192.24 
L 63 40.881156 
" style="fill: none; stroke: #262626; stroke-linejoin: miter; stroke-linecap: square"/>
   </g>
   <g id="patch_4">
    <path d="M 63 192.24 
L 240.545455 192.24 
" style="fill: none; stroke: #262626; stroke-linejoin: miter; stroke-linecap: square"/>
   </g>
   <g id="text_7">
    <!-- *** -->
    <g style="fill: #262626" transform="translate(161.454205 164.578814) scale(0.16 -0.16)">
     <defs>
      <path id="ArialMT-2a" d="M 200 3741 
L 344 4184 
Q 841 4009 1066 3881 
Q 1006 4447 1003 4659 
L 1456 4659 
Q 1447 4350 1384 3884 
Q 1706 4047 2122 4184 
L 2266 3741 
Q 1869 3609 1488 3566 
Q 1678 3400 2025 2975 
L 1650 2709 
Q 1469 2956 1222 3381 
Q 991 2941 816 2709 
L 447 2975 
Q 809 3422 966 3566 
Q 563 3644 200 3741 
z
" transform="scale(0.015625)"/>
     </defs>
     <use xlink:href="#ArialMT-2a"/>
     <use xlink:href="#ArialMT-2a" x="38.916016"/>
     <use xlink:href="#ArialMT-2a" x="77.832031"/>
    </g>
   </g>
   <g id="text_8">
    <!-- *** -->
    <g style="fill: #262626" transform="translate(199.499659 115.659716) scale(0.16 -0.16)">
     <use xlink:href="#ArialMT-2a"/>
     <use xlink:href="#ArialMT-2a" x="38.916016"/>
     <use xlink:href="#ArialMT-2a" x="77.832031"/>
    </g>
   </g>
   <g id="legend_1">
    <g id="patch_5">
     <path d="M 248.945455 109.2 
L 410.225455 109.2 
Q 412.625455 109.2 412.625455 106.8 
L 412.625455 34.32 
Q 412.625455 31.92 410.225455 31.92 
L 248.945455 31.92 
Q 246.545455 31.92 246.545455 34.32 
L 246.545455 106.8 
Q 246.545455 109.2 248.945455 109.2 
z
" style="fill: #ffffff; opacity: 0.8"/>
    </g>
    <g id="patch_6">
     <path d="M 251.345455 45.48 
L 263.345455 45.48 
L 263.345455 37.08 
L 251.345455 37.08 
z
" style="fill: #a0a0a4; stroke: #a0a0a4; stroke-width: 2; stroke-linejoin: miter"/>
    </g>
    <g id="text_9">
     <!-- WT + $_{ }$TAT-Cntrl (494) -->
     <g style="fill: #262626" transform="translate(272.945455 45.48) scale(0.12 -0.12)">
      <defs>
       <path id="ArialMT-57" d="M 1294 0 
L 78 4581 
L 700 4581 
L 1397 1578 
Q 1509 1106 1591 641 
Q 1766 1375 1797 1488 
L 2669 4581 
L 3400 4581 
L 4056 2263 
Q 4303 1400 4413 641 
Q 4500 1075 4641 1638 
L 5359 4581 
L 5969 4581 
L 4713 0 
L 4128 0 
L 3163 3491 
Q 3041 3928 3019 4028 
Q 2947 3713 2884 3491 
L 1913 0 
L 1294 0 
z
" transform="scale(0.015625)"/>
       <path id="ArialMT-54" d="M 1659 0 
L 1659 4041 
L 150 4041 
L 150 4581 
L 3781 4581 
L 3781 4041 
L 2266 4041 
L 2266 0 
L 1659 0 
z
" transform="scale(0.015625)"/>
       <path id="ArialMT-2b" d="M 1603 741 
L 1603 1997 
L 356 1997 
L 356 2522 
L 1603 2522 
L 1603 3769 
L 2134 3769 
L 2134 2522 
L 3381 2522 
L 3381 1997 
L 2134 1997 
L 2134 741 
L 1603 741 
z
" transform="scale(0.015625)"/>
       <path id="ArialMT-a0" transform="scale(0.015625)"/>
       <path id="ArialMT-41" d="M -9 0 
L 1750 4581 
L 2403 4581 
L 4278 0 
L 3588 0 
L 3053 1388 
L 1138 1388 
L 634 0 
L -9 0 
z
M 1313 1881 
L 2866 1881 
L 2388 3150 
Q 2169 3728 2063 4100 
Q 1975 3659 1816 3225 
L 1313 1881 
z
" transform="scale(0.015625)"/>
       <path id="ArialMT-2d" d="M 203 1375 
L 203 1941 
L 1931 1941 
L 1931 1375 
L 203 1375 
z
" transform="scale(0.015625)"/>
       <path id="ArialMT-43" d="M 3763 1606 
L 4369 1453 
Q 4178 706 3683 314 
Q 3188 -78 2472 -78 
Q 1731 -78 1267 223 
Q 803 525 561 1097 
Q 319 1669 319 2325 
Q 319 3041 592 3573 
Q 866 4106 1370 4382 
Q 1875 4659 2481 4659 
Q 3169 4659 3637 4309 
Q 4106 3959 4291 3325 
L 3694 3184 
Q 3534 3684 3231 3912 
Q 2928 4141 2469 4141 
Q 1941 4141 1586 3887 
Q 1231 3634 1087 3207 
Q 944 2781 944 2328 
Q 944 1744 1114 1308 
Q 1284 872 1643 656 
Q 2003 441 2422 441 
Q 2931 441 3284 734 
Q 3638 1028 3763 1606 
z
" transform="scale(0.015625)"/>
       <path id="ArialMT-34" d="M 2069 0 
L 2069 1097 
L 81 1097 
L 81 1613 
L 2172 4581 
L 2631 4581 
L 2631 1613 
L 3250 1613 
L 3250 1097 
L 2631 1097 
L 2631 0 
L 2069 0 
z
M 2069 1613 
L 2069 3678 
L 634 1613 
L 2069 1613 
z
" transform="scale(0.015625)"/>
       <path id="ArialMT-39" d="M 350 1059 
L 891 1109 
Q 959 728 1153 556 
Q 1347 384 1650 384 
Q 1909 384 2104 503 
Q 2300 622 2425 820 
Q 2550 1019 2634 1356 
Q 2719 1694 2719 2044 
Q 2719 2081 2716 2156 
Q 2547 1888 2255 1720 
Q 1963 1553 1622 1553 
Q 1053 1553 659 1965 
Q 266 2378 266 3053 
Q 266 3750 677 4175 
Q 1088 4600 1706 4600 
Q 2153 4600 2523 4359 
Q 2894 4119 3086 3673 
Q 3278 3228 3278 2384 
Q 3278 1506 3087 986 
Q 2897 466 2520 194 
Q 2144 -78 1638 -78 
Q 1100 -78 759 220 
Q 419 519 350 1059 
z
M 2653 3081 
Q 2653 3566 2395 3850 
Q 2138 4134 1775 4134 
Q 1400 4134 1122 3828 
Q 844 3522 844 3034 
Q 844 2597 1108 2323 
Q 1372 2050 1759 2050 
Q 2150 2050 2401 2323 
Q 2653 2597 2653 3081 
z
" transform="scale(0.015625)"/>
      </defs>
      <use xlink:href="#ArialMT-57" transform="translate(0 0.203125)"/>
      <use xlink:href="#ArialMT-54" transform="translate(94.384766 0.203125)"/>
      <use xlink:href="#ArialMT-20" transform="translate(155.46875 0.203125)"/>
      <use xlink:href="#ArialMT-2b" transform="translate(183.251953 0.203125)"/>
      <use xlink:href="#ArialMT-20" transform="translate(241.650391 0.203125)"/>
      <use xlink:href="#ArialMT-a0" transform="translate(271.175937 -29.665625) scale(0.7)"/>
      <use xlink:href="#ArialMT-54" transform="translate(295.602305 0.203125)"/>
      <use xlink:href="#ArialMT-41" transform="translate(356.686289 0.203125)"/>
      <use xlink:href="#ArialMT-54" transform="translate(423.385508 0.203125)"/>
      <use xlink:href="#ArialMT-2d" transform="translate(484.469492 0.203125)"/>
      <use xlink:href="#ArialMT-43" transform="translate(517.770273 0.203125)"/>
      <use xlink:href="#ArialMT-6e" transform="translate(589.98707 0.203125)"/>
      <use xlink:href="#ArialMT-74" transform="translate(645.602305 0.203125)"/>
      <use xlink:href="#ArialMT-72" transform="translate(673.385508 0.203125)"/>
      <use xlink:href="#ArialMT-6c" transform="translate(706.686289 0.203125)"/>
      <use xlink:href="#ArialMT-20" transform="translate(728.903086 0.203125)"/>
      <use xlink:href="#ArialMT-28" transform="translate(756.686289 0.203125)"/>
      <use xlink:href="#ArialMT-34" transform="translate(789.98707 0.203125)"/>
      <use xlink:href="#ArialMT-39" transform="translate(845.602305 0.203125)"/>
      <use xlink:href="#ArialMT-34" transform="translate(901.217539 0.203125)"/>
      <use xlink:href="#ArialMT-29" transform="translate(956.832773 0.203125)"/>
     </g>
    </g>
    <g id="patch_7">
     <path d="M 251.345455 63.84 
L 263.345455 63.84 
L 263.345455 55.44 
L 251.345455 55.44 
z
" style="fill: #ffa040; stroke: #ffa040; stroke-width: 2; stroke-linejoin: miter"/>
    </g>
    <g id="text_10">
     <!-- WT + TAT-$GluA2_{3Y}$ (365) -->
     <g style="fill: #262626" transform="translate(272.945455 63.84) scale(0.12 -0.12)">
      <defs>
       <path id="ArialMT-47" d="M 2638 1797 
L 2638 2334 
L 4578 2338 
L 4578 638 
Q 4131 281 3656 101 
Q 3181 -78 2681 -78 
Q 2006 -78 1454 211 
Q 903 500 622 1047 
Q 341 1594 341 2269 
Q 341 2938 620 3517 
Q 900 4097 1425 4378 
Q 1950 4659 2634 4659 
Q 3131 4659 3532 4498 
Q 3934 4338 4162 4050 
Q 4391 3763 4509 3300 
L 3963 3150 
Q 3859 3500 3706 3700 
Q 3553 3900 3268 4020 
Q 2984 4141 2638 4141 
Q 2222 4141 1919 4014 
Q 1616 3888 1430 3681 
Q 1244 3475 1141 3228 
Q 966 2803 966 2306 
Q 966 1694 1177 1281 
Q 1388 869 1791 669 
Q 2194 469 2647 469 
Q 3041 469 3416 620 
Q 3791 772 3984 944 
L 3984 1797 
L 2638 1797 
z
" transform="scale(0.015625)"/>
       <path id="ArialMT-33" d="M 269 1209 
L 831 1284 
Q 928 806 1161 595 
Q 1394 384 1728 384 
Q 2125 384 2398 659 
Q 2672 934 2672 1341 
Q 2672 1728 2419 1979 
Q 2166 2231 1775 2231 
Q 1616 2231 1378 2169 
L 1441 2663 
Q 1497 2656 1531 2656 
Q 1891 2656 2178 2843 
Q 2466 3031 2466 3422 
Q 2466 3731 2256 3934 
Q 2047 4138 1716 4138 
Q 1388 4138 1169 3931 
Q 950 3725 888 3313 
L 325 3413 
Q 428 3978 793 4289 
Q 1159 4600 1703 4600 
Q 2078 4600 2393 4439 
Q 2709 4278 2876 4000 
Q 3044 3722 3044 3409 
Q 3044 3113 2884 2869 
Q 2725 2625 2413 2481 
Q 2819 2388 3044 2092 
Q 3269 1797 3269 1353 
Q 3269 753 2831 336 
Q 2394 -81 1725 -81 
Q 1122 -81 723 278 
Q 325 638 269 1209 
z
" transform="scale(0.015625)"/>
       <path id="ArialMT-59" d="M 1784 0 
L 1784 1941 
L 19 4581 
L 756 4581 
L 1659 3200 
Q 1909 2813 2125 2425 
Q 2331 2784 2625 3234 
L 3513 4581 
L 4219 4581 
L 2391 1941 
L 2391 0 
L 1784 0 
z
" transform="scale(0.015625)"/>
       <path id="ArialMT-36" d="M 3184 3459 
L 2625 3416 
Q 2550 3747 2413 3897 
Q 2184 4138 1850 4138 
Q 1581 4138 1378 3988 
Q 1113 3794 959 3422 
Q 806 3050 800 2363 
Q 1003 2672 1297 2822 
Q 1591 2972 1913 2972 
Q 2475 2972 2870 2558 
Q 3266 2144 3266 1488 
Q 3266 1056 3080 686 
Q 2894 316 2569 119 
Q 2244 -78 1831 -78 
Q 1128 -78 684 439 
Q 241 956 241 2144 
Q 241 3472 731 4075 
Q 1159 4600 1884 4600 
Q 2425 4600 2770 4297 
Q 3116 3994 3184 3459 
z
M 888 1484 
Q 888 1194 1011 928 
Q 1134 663 1356 523 
Q 1578 384 1822 384 
Q 2178 384 2434 671 
Q 2691 959 2691 1453 
Q 2691 1928 2437 2201 
Q 2184 2475 1800 2475 
Q 1419 2475 1153 2201 
Q 888 1928 888 1484 
z
" transform="scale(0.015625)"/>
      </defs>
      <use xlink:href="#ArialMT-57" transform="translate(0 0.203125)"/>
      <use xlink:href="#ArialMT-54" transform="translate(94.384766 0.203125)"/>
      <use xlink:href="#ArialMT-20" transform="translate(155.46875 0.203125)"/>
      <use xlink:href="#ArialMT-2b" transform="translate(183.251953 0.203125)"/>
      <use xlink:href="#ArialMT-20" transform="translate(241.650391 0.203125)"/>
      <use xlink:href="#ArialMT-54" transform="translate(269.433594 0.203125)"/>
      <use xlink:href="#ArialMT-41" transform="translate(330.517578 0.203125)"/>
      <use xlink:href="#ArialMT-54" transform="translate(397.216797 0.203125)"/>
      <use xlink:href="#ArialMT-2d" transform="translate(458.300781 0.203125)"/>
      <use xlink:href="#ArialMT-47" transform="translate(491.601562 0.203125)"/>
      <use xlink:href="#ArialMT-6c" transform="translate(569.384766 0.203125)"/>
      <use xlink:href="#ArialMT-75" transform="translate(591.601562 0.203125)"/>
      <use xlink:href="#ArialMT-41" transform="translate(647.216797 0.203125)"/>
      <use xlink:href="#ArialMT-32" transform="translate(713.916016 0.203125)"/>
      <use xlink:href="#ArialMT-33" transform="translate(771.273594 -29.665625) scale(0.7)"/>
      <use xlink:href="#ArialMT-59" transform="translate(810.204258 -29.665625) scale(0.7)"/>
      <use xlink:href="#ArialMT-20" transform="translate(861.871836 0.203125)"/>
      <use xlink:href="#ArialMT-28" transform="translate(889.655039 0.203125)"/>
      <use xlink:href="#ArialMT-33" transform="translate(922.95582 0.203125)"/>
      <use xlink:href="#ArialMT-36" transform="translate(978.571055 0.203125)"/>
      <use xlink:href="#ArialMT-35" transform="translate(1034.186289 0.203125)"/>
      <use xlink:href="#ArialMT-29" transform="translate(1089.801523 0.203125)"/>
     </g>
    </g>
    <g id="patch_8">
     <path d="M 251.345455 82.32 
L 263.345455 82.32 
L 263.345455 73.92 
L 251.345455 73.92 
L 251.345455 82.32 
z
" style="fill: none; stroke: #a0a0a4; stroke-width: 2; stroke-linejoin: miter"/>
    </g>
    <g id="text_11">
     <!-- Tg + $_{ }$TAT-Cntrl (281) -->
     <g style="fill: #262626" transform="translate(272.945455 82.32) scale(0.12 -0.12)">
      <defs>
       <path id="ArialMT-38" d="M 1131 2484 
Q 781 2613 612 2850 
Q 444 3088 444 3419 
Q 444 3919 803 4259 
Q 1163 4600 1759 4600 
Q 2359 4600 2725 4251 
Q 3091 3903 3091 3403 
Q 3091 3084 2923 2848 
Q 2756 2613 2416 2484 
Q 2838 2347 3058 2040 
Q 3278 1734 3278 1309 
Q 3278 722 2862 322 
Q 2447 -78 1769 -78 
Q 1091 -78 675 323 
Q 259 725 259 1325 
Q 259 1772 486 2073 
Q 713 2375 1131 2484 
z
M 1019 3438 
Q 1019 3113 1228 2906 
Q 1438 2700 1772 2700 
Q 2097 2700 2305 2904 
Q 2513 3109 2513 3406 
Q 2513 3716 2298 3927 
Q 2084 4138 1766 4138 
Q 1444 4138 1231 3931 
Q 1019 3725 1019 3438 
z
M 838 1322 
Q 838 1081 952 856 
Q 1066 631 1291 507 
Q 1516 384 1775 384 
Q 2178 384 2440 643 
Q 2703 903 2703 1303 
Q 2703 1709 2433 1975 
Q 2163 2241 1756 2241 
Q 1359 2241 1098 1978 
Q 838 1716 838 1322 
z
" transform="scale(0.015625)"/>
      </defs>
      <use xlink:href="#ArialMT-54" transform="translate(0 0.203125)"/>
      <use xlink:href="#ArialMT-67" transform="translate(61.083984 0.203125)"/>
      <use xlink:href="#ArialMT-20" transform="translate(116.699219 0.203125)"/>
      <use xlink:href="#ArialMT-2b" transform="translate(144.482422 0.203125)"/>
      <use xlink:href="#ArialMT-20" transform="translate(202.880859 0.203125)"/>
      <use xlink:href="#ArialMT-a0" transform="translate(232.406406 -29.665625) scale(0.7)"/>
      <use xlink:href="#ArialMT-54" transform="translate(256.832773 0.203125)"/>
      <use xlink:href="#ArialMT-41" transform="translate(317.916758 0.203125)"/>
      <use xlink:href="#ArialMT-54" transform="translate(384.615977 0.203125)"/>
      <use xlink:href="#ArialMT-2d" transform="translate(445.699961 0.203125)"/>
      <use xlink:href="#ArialMT-43" transform="translate(479.000742 0.203125)"/>
      <use xlink:href="#ArialMT-6e" transform="translate(551.217539 0.203125)"/>
      <use xlink:href="#ArialMT-74" transform="translate(606.832773 0.203125)"/>
      <use xlink:href="#ArialMT-72" transform="translate(634.615977 0.203125)"/>
      <use xlink:href="#ArialMT-6c" transform="translate(667.916758 0.203125)"/>
      <use xlink:href="#ArialMT-20" transform="translate(690.133555 0.203125)"/>
      <use xlink:href="#ArialMT-28" transform="translate(717.916758 0.203125)"/>
      <use xlink:href="#ArialMT-32" transform="translate(751.217539 0.203125)"/>
      <use xlink:href="#ArialMT-38" transform="translate(806.832773 0.203125)"/>
      <use xlink:href="#ArialMT-31" transform="translate(862.448008 0.203125)"/>
      <use xlink:href="#ArialMT-29" transform="translate(918.063242 0.203125)"/>
     </g>
    </g>
    <g id="patch_9">
     <path d="M 251.345455 100.68 
L 263.345455 100.68 
L 263.345455 92.28 
L 251.345455 92.28 
L 251.345455 100.68 
z
" style="fill: none; stroke: #ffa040; stroke-width: 2; stroke-linejoin: miter"/>
    </g>
    <g id="text_12">
     <!-- Tg + TAT-$GluA2_{3Y}$ (346) -->
     <g style="fill: #262626" transform="translate(272.945455 100.68) scale(0.12 -0.12)">
      <use xlink:href="#ArialMT-54" transform="translate(0 0.203125)"/>
      <use xlink:href="#ArialMT-67" transform="translate(61.083984 0.203125)"/>
      <use xlink:href="#ArialMT-20" transform="translate(116.699219 0.203125)"/>
      <use xlink:href="#ArialMT-2b" transform="translate(144.482422 0.203125)"/>
      <use xlink:href="#ArialMT-20" transform="translate(202.880859 0.203125)"/>
      <use xlink:href="#ArialMT-54" transform="translate(230.664062 0.203125)"/>
      <use xlink:href="#ArialMT-41" transform="translate(291.748047 0.203125)"/>
      <use xlink:href="#ArialMT-54" transform="translate(358.447266 0.203125)"/>
      <use xlink:href="#ArialMT-2d" transform="translate(419.53125 0.203125)"/>
      <use xlink:href="#ArialMT-47" transform="translate(452.832031 0.203125)"/>
      <use xlink:href="#ArialMT-6c" transform="translate(530.615234 0.203125)"/>
      <use xlink:href="#ArialMT-75" transform="translate(552.832031 0.203125)"/>
      <use xlink:href="#ArialMT-41" transform="translate(608.447266 0.203125)"/>
      <use xlink:href="#ArialMT-32" transform="translate(675.146484 0.203125)"/>
      <use xlink:href="#ArialMT-33" transform="translate(732.504063 -29.665625) scale(0.7)"/>
      <use xlink:href="#ArialMT-59" transform="translate(771.434727 -29.665625) scale(0.7)"/>
      <use xlink:href="#ArialMT-20" transform="translate(823.102305 0.203125)"/>
      <use xlink:href="#ArialMT-28" transform="translate(850.885508 0.203125)"/>
      <use xlink:href="#ArialMT-33" transform="translate(884.186289 0.203125)"/>
      <use xlink:href="#ArialMT-34" transform="translate(939.801523 0.203125)"/>
      <use xlink:href="#ArialMT-36" transform="translate(995.416758 0.203125)"/>
      <use xlink:href="#ArialMT-29" transform="translate(1051.031992 0.203125)"/>
     </g>
    </g>
   </g>
   <g id="legend_2">
    <g id="patch_10">
     <path d="M 248.945455 109.2 
L 410.225455 109.2 
Q 412.625455 109.2 412.625455 106.8 
L 412.625455 34.32 
Q 412.625455 31.92 410.225455 31.92 
L 248.945455 31.92 
Q 246.545455 31.92 246.545455 34.32 
L 246.545455 106.8 
Q 246.545455 109.2 248.945455 109.2 
z
" style="fill: #ffffff; opacity: 0.8"/>
    </g>
    <g id="patch_11">
     <path d="M 251.345455 45.48 
L 263.345455 45.48 
L 263.345455 37.08 
L 251.345455 37.08 
z
" style="fill: #a0a0a4; stroke: #a0a0a4; stroke-width: 2; stroke-linejoin: miter"/>
    </g>
    <g id="text_13">
     <!-- WT + $_{ }$TAT-Cntrl (494) -->
     <g style="fill: #262626" transform="translate(272.945455 45.48) scale(0.12 -0.12)">
      <use xlink:href="#ArialMT-57" transform="translate(0 0.203125)"/>
      <use xlink:href="#ArialMT-54" transform="translate(94.384766 0.203125)"/>
      <use xlink:href="#ArialMT-20" transform="translate(155.46875 0.203125)"/>
      <use xlink:href="#ArialMT-2b" transform="translate(183.251953 0.203125)"/>
      <use xlink:href="#ArialMT-20" transform="translate(241.650391 0.203125)"/>
      <use xlink:href="#ArialMT-a0" transform="translate(271.175937 -29.665625) scale(0.7)"/>
      <use xlink:href="#ArialMT-54" transform="translate(295.602305 0.203125)"/>
      <use xlink:href="#ArialMT-41" transform="translate(356.686289 0.203125)"/>
      <use xlink:href="#ArialMT-54" transform="translate(423.385508 0.203125)"/>
      <use xlink:href="#ArialMT-2d" transform="translate(484.469492 0.203125)"/>
      <use xlink:href="#ArialMT-43" transform="translate(517.770273 0.203125)"/>
      <use xlink:href="#ArialMT-6e" transform="translate(589.98707 0.203125)"/>
      <use xlink:href="#ArialMT-74" transform="translate(645.602305 0.203125)"/>
      <use xlink:href="#ArialMT-72" transform="translate(673.385508 0.203125)"/>
      <use xlink:href="#ArialMT-6c" transform="translate(706.686289 0.203125)"/>
      <use xlink:href="#ArialMT-20" transform="translate(728.903086 0.203125)"/>
      <use xlink:href="#ArialMT-28" transform="translate(756.686289 0.203125)"/>
      <use xlink:href="#ArialMT-34" transform="translate(789.98707 0.203125)"/>
      <use xlink:href="#ArialMT-39" transform="translate(845.602305 0.203125)"/>
      <use xlink:href="#ArialMT-34" transform="translate(901.217539 0.203125)"/>
      <use xlink:href="#ArialMT-29" transform="translate(956.832773 0.203125)"/>
     </g>
    </g>
    <g id="patch_12">
     <path d="M 251.345455 63.84 
L 263.345455 63.84 
L 263.345455 55.44 
L 251.345455 55.44 
z
" style="fill: #ffa040; stroke: #ffa040; stroke-width: 2; stroke-linejoin: miter"/>
    </g>
    <g id="text_14">
     <!-- WT + TAT-$GluA2_{3Y}$ (365) -->
     <g style="fill: #262626" transform="translate(272.945455 63.84) scale(0.12 -0.12)">
      <use xlink:href="#ArialMT-57" transform="translate(0 0.203125)"/>
      <use xlink:href="#ArialMT-54" transform="translate(94.384766 0.203125)"/>
      <use xlink:href="#ArialMT-20" transform="translate(155.46875 0.203125)"/>
      <use xlink:href="#ArialMT-2b" transform="translate(183.251953 0.203125)"/>
      <use xlink:href="#ArialMT-20" transform="translate(241.650391 0.203125)"/>
      <use xlink:href="#ArialMT-54" transform="translate(269.433594 0.203125)"/>
      <use xlink:href="#ArialMT-41" transform="translate(330.517578 0.203125)"/>
      <use xlink:href="#ArialMT-54" transform="translate(397.216797 0.203125)"/>
      <use xlink:href="#ArialMT-2d" transform="translate(458.300781 0.203125)"/>
      <use xlink:href="#ArialMT-47" transform="translate(491.601562 0.203125)"/>
      <use xlink:href="#ArialMT-6c" transform="translate(569.384766 0.203125)"/>
      <use xlink:href="#ArialMT-75" transform="translate(591.601562 0.203125)"/>
      <use xlink:href="#ArialMT-41" transform="translate(647.216797 0.203125)"/>
      <use xlink:href="#ArialMT-32" transform="translate(713.916016 0.203125)"/>
      <use xlink:href="#ArialMT-33" transform="translate(771.273594 -29.665625) scale(0.7)"/>
      <use xlink:href="#ArialMT-59" transform="translate(810.204258 -29.665625) scale(0.7)"/>
      <use xlink:href="#ArialMT-20" transform="translate(861.871836 0.203125)"/>
      <use xlink:href="#ArialMT-28" transform="translate(889.655039 0.203125)"/>
      <use xlink:href="#ArialMT-33" transform="translate(922.95582 0.203125)"/>
      <use xlink:href="#ArialMT-36" transform="translate(978.571055 0.203125)"/>
      <use xlink:href="#ArialMT-35" transform="translate(1034.186289 0.203125)"/>
      <use xlink:href="#ArialMT-29" transform="translate(1089.801523 0.203125)"/>
     </g>
    </g>
    <g id="patch_13">
     <path d="M 251.345455 82.32 
L 263.345455 82.32 
L 263.345455 73.92 
L 251.345455 73.92 
L 251.345455 82.32 
z
" style="fill: none; stroke: #a0a0a4; stroke-width: 2; stroke-linejoin: miter"/>
    </g>
    <g id="text_15">
     <!-- Tg + $_{ }$TAT-Cntrl (281) -->
     <g style="fill: #262626" transform="translate(272.945455 82.32) scale(0.12 -0.12)">
      <use xlink:href="#ArialMT-54" transform="translate(0 0.203125)"/>
      <use xlink:href="#ArialMT-67" transform="translate(61.083984 0.203125)"/>
      <use xlink:href="#ArialMT-20" transform="translate(116.699219 0.203125)"/>
      <use xlink:href="#ArialMT-2b" transform="translate(144.482422 0.203125)"/>
      <use xlink:href="#ArialMT-20" transform="translate(202.880859 0.203125)"/>
      <use xlink:href="#ArialMT-a0" transform="translate(232.406406 -29.665625) scale(0.7)"/>
      <use xlink:href="#ArialMT-54" transform="translate(256.832773 0.203125)"/>
      <use xlink:href="#ArialMT-41" transform="translate(317.916758 0.203125)"/>
      <use xlink:href="#ArialMT-54" transform="translate(384.615977 0.203125)"/>
      <use xlink:href="#ArialMT-2d" transform="translate(445.699961 0.203125)"/>
      <use xlink:href="#ArialMT-43" transform="translate(479.000742 0.203125)"/>
      <use xlink:href="#ArialMT-6e" transform="translate(551.217539 0.203125)"/>
      <use xlink:href="#ArialMT-74" transform="translate(606.832773 0.203125)"/>
      <use xlink:href="#ArialMT-72" transform="translate(634.615977 0.203125)"/>
      <use xlink:href="#ArialMT-6c" transform="translate(667.916758 0.203125)"/>
      <use xlink:href="#ArialMT-20" transform="translate(690.133555 0.203125)"/>
      <use xlink:href="#ArialMT-28" transform="translate(717.916758 0.203125)"/>
      <use xlink:href="#ArialMT-32" transform="translate(751.217539 0.203125)"/>
      <use xlink:href="#ArialMT-38" transform="translate(806.832773 0.203125)"/>
      <use xlink:href="#ArialMT-31" transform="translate(862.448008 0.203125)"/>
      <use xlink:href="#ArialMT-29" transform="translate(918.063242 0.203125)"/>
     </g>
    </g>
    <g id="patch_14">
     <path d="M 251.345455 100.68 
L 263.345455 100.68 
L 263.345455 92.28 
L 251.345455 92.28 
L 251.345455 100.68 
z
" style="fill: none; stroke: #ffa040; stroke-width: 2; stroke-linejoin: miter"/>
    </g>
    <g id="text_16">
     <!-- Tg + TAT-$GluA2_{3Y}$ (346) -->
     <g style="fill: #262626" transform="translate(272.945455 100.68) scale(0.12 -0.12)">
      <use xlink:href="#ArialMT-54" transform="translate(0 0.203125)"/>
      <use xlink:href="#ArialMT-67" transform="translate(61.083984 0.203125)"/>
      <use xlink:href="#ArialMT-20" transform="translate(116.699219 0.203125)"/>
      <use xlink:href="#ArialMT-2b" transform="translate(144.482422 0.203125)"/>
      <use xlink:href="#ArialMT-20" transform="translate(202.880859 0.203125)"/>
      <use xlink:href="#ArialMT-54" transform="translate(230.664062 0.203125)"/>
      <use xlink:href="#ArialMT-41" transform="translate(291.748047 0.203125)"/>
      <use xlink:href="#ArialMT-54" transform="translate(358.447266 0.203125)"/>
      <use xlink:href="#ArialMT-2d" transform="translate(419.53125 0.203125)"/>
      <use xlink:href="#ArialMT-47" transform="translate(452.832031 0.203125)"/>
      <use xlink:href="#ArialMT-6c" transform="translate(530.615234 0.203125)"/>
      <use xlink:href="#ArialMT-75" transform="translate(552.832031 0.203125)"/>
      <use xlink:href="#ArialMT-41" transform="translate(608.447266 0.203125)"/>
      <use xlink:href="#ArialMT-32" transform="translate(675.146484 0.203125)"/>
      <use xlink:href="#ArialMT-33" transform="translate(732.504063 -29.665625) scale(0.7)"/>
      <use xlink:href="#ArialMT-59" transform="translate(771.434727 -29.665625) scale(0.7)"/>
      <use xlink:href="#ArialMT-20" transform="translate(823.102305 0.203125)"/>
      <use xlink:href="#ArialMT-28" transform="translate(850.885508 0.203125)"/>
      <use xlink:href="#ArialMT-33" transform="translate(884.186289 0.203125)"/>
      <use xlink:href="#ArialMT-34" transform="translate(939.801523 0.203125)"/>
      <use xlink:href="#ArialMT-36" transform="translate(995.416758 0.203125)"/>
      <use xlink:href="#ArialMT-29" transform="translate(1051.031992 0.203125)"/>
     </g>
    </g>
   </g>
  </g>
  <g id="axes_2"/>
 </g>
 <defs>
  <clipPath id="p7ddd16ab1e">
   <rect x="63" y="40.881156" width="177.545455" height="151.358844"/>
  </clipPath>
 </defs>
</svg>
